<svg xmlns="http://www.w3.org/2000/svg" width="113.727" height="104.824" viewBox="0 0 113.727 104.824">
  <path id="js-square-brands" d="M101.542,32H12.185C5.458,32,0,37.031,0,43.231v82.362c0,6.2,5.458,11.231,12.185,11.231h89.357c6.727,0,12.185-5.031,12.185-11.231V43.231C113.727,37.031,108.269,32,101.542,32ZM61.89,113.754c0,10.2-6.5,14.858-15.967,14.858-8.555,0-13.505-4.071-16.044-9.008l8.707-4.843c1.675,2.738,3.2,5.054,6.879,5.054,3.5,0,5.737-1.264,5.737-6.2V80.13H61.89v33.623Zm25.284,14.858c-9.926,0-16.348-4.352-19.471-10.061l8.707-4.633c2.285,3.44,5.28,5.99,10.535,5.99,4.417,0,7.26-2.036,7.26-4.867,0-3.369-2.894-4.563-7.793-6.552l-2.665-1.053c-7.717-3.018-12.82-6.832-12.82-14.858,0-7.394,6.118-13.009,15.637-13.009,6.8,0,11.677,2.176,15.181,7.885l-8.326,4.914c-1.828-3.018-3.808-4.212-6.879-4.212-3.122,0-5.1,1.825-5.1,4.212,0,2.948,1.98,4.141,6.575,5.99l2.665,1.053c9.088,3.58,14.19,7.253,14.19,15.49,0,8.845-7.565,13.711-17.694,13.711Z" transform="translate(0 -32)" fill="#6e24ff"/>
</svg>
