<svg xmlns="http://www.w3.org/2000/svg" width="90.024" height="105.638" viewBox="0 0 90.024 105.638">
  <path id="apple-brands" d="M74.61,85.109c-.045-8.234,3.68-14.45,11.219-19.027-4.218-6.036-10.59-9.356-19-10.007-7.965-.628-16.671,4.644-19.857,4.644-3.366,0-11.084-4.42-17.142-4.42C17.305,56.5,4,66.284,4,86.186A55.922,55.922,0,0,0,7.231,104.4c2.872,8.234,13.238,28.428,24.053,28.091,5.654-.135,9.648-4.016,17.007-4.016,7.135,0,10.837,4.016,17.142,4.016,10.9-.157,20.283-18.511,23.02-26.767C73.824,98.84,74.61,85.535,74.61,85.109ZM61.91,48.267C68.036,41,67.475,34.378,67.3,32c-5.407.314-11.667,3.68-15.235,7.831a21.464,21.464,0,0,0-5.744,16.132C52.172,56.412,57.513,53.405,61.91,48.267Z" transform="translate(-1.5 -29.362)" fill="#fff" stroke="#6e24ff" stroke-width="5"/>
</svg>
