<svg width="46" height="75.155" viewBox="0 0 46 75.155">
  <g id="scroll" transform="translate(-216 -710)">
    <g id="Path_1" data-name="Path 1" transform="translate(216 710)" fill="none">
      <path d="M23,0A23,23,0,0,1,46,23V52.155a23,23,0,1,1-46,0V23A23,23,0,0,1,23,0Z" stroke="none"/>
      <path d="M 23 6 C 13.62617111206055 6 6 13.62617111206055 6 23.00000381469727 L 6 52.15492630004883 C 6 61.52875518798828 13.62617111206055 69.15493011474609 23 69.15493011474609 C 28.27412223815918 69.15493011474609 33.29483032226563 66.69675445556641 36.43121337890625 62.57828140258789 C 38.76593780517578 59.51388168334961 40 55.90954208374023 40 52.15492630004883 L 40 23.00000381469727 C 40 13.62617111206055 32.37383270263672 6 23 6 M 23 0 C 35.70255279541016 0 46 10.29744720458984 46 23.00000381469727 L 46 52.15492630004883 C 46 57.38837432861328 44.2520751953125 62.21357345581055 41.2038459777832 66.2144775390625 C 37.10664749145508 71.59465026855469 30.46910858154297 75.15493011474609 23 75.15493011474609 C 10.29744720458984 75.15493011474609 0 64.85748291015625 0 52.15492630004883 L 0 23.00000381469727 C 0 10.29744720458984 10.29744720458984 0 23 0 Z" stroke="none" fill="#fff"/>
    </g>
    <g id="Path_2" data-name="Path 2" transform="translate(227 720.667)" fill="#fff">
      <path d="M 11.66666412353516 22.83337783813477 C 8.683943748474121 22.83337783813477 5.879744052886963 21.67183685302734 3.770644187927246 19.5627269744873 C 1.66154408454895 17.45361709594727 0.5000041127204895 14.64941692352295 0.5000041127204895 11.66668701171875 C 0.5000041127204895 8.683957099914551 1.66154408454895 5.879756927490234 3.770644187927246 3.770647048950195 C 5.879744052886963 1.661537051200867 8.683943748474121 0.4999970197677612 11.66666412353516 0.4999970197677612 C 14.64938449859619 0.4999970197677612 17.45358467102051 1.661537051200867 19.56268501281738 3.770647048950195 C 21.67178344726563 5.879756927490234 22.83332443237305 8.683957099914551 22.83332443237305 11.66668701171875 C 22.83332443237305 14.64941692352295 21.67178344726563 17.45361709594727 19.56268501281738 19.5627269744873 C 17.45358467102051 21.67183685302734 14.64938449859619 22.83337783813477 11.66666412353516 22.83337783813477 Z" stroke="none"/>
      <path d="M 11.66666412353516 0.9999961853027344 C 5.785043716430664 0.9999961853027344 1.000003814697266 5.785057067871094 1.000003814697266 11.66668701171875 C 1.000003814697266 17.54831695556641 5.785043716430664 22.33337783813477 11.66666412353516 22.33337783813477 C 17.54828453063965 22.33337783813477 22.33332443237305 17.54831695556641 22.33332443237305 11.66668701171875 C 22.33332443237305 5.785057067871094 17.54828453063965 0.9999961853027344 11.66666412353516 0.9999961853027344 M 11.66666412353516 -3.814697265625e-06 C 18.10998344421387 -3.814697265625e-06 23.33332443237305 5.223356246948242 23.33332443237305 11.66668701171875 C 23.33332443237305 18.11001586914063 18.10998344421387 23.33337783813477 11.66666412353516 23.33337783813477 C 5.223344802856445 23.33337783813477 3.814697265625e-06 18.11001586914063 3.814697265625e-06 11.66668701171875 C 3.814697265625e-06 5.223356246948242 5.223344802856445 -3.814697265625e-06 11.66666412353516 -3.814697265625e-06 Z" stroke="none" fill="#707070"/>
    </g>
  </g>
</svg>
